<svg width="218" height="66" viewBox="0 0 218 66" fill="none" xmlns="http://www.w3.org/2000/svg">
<path d="M24.0852 43.784C24.9063 44.1662 25.8642 44.3572 26.9301 44.3572H39.7647V42.1986H26.7933C25.3168 42.057 25.3168 41.5049 25.3168 41.328V21.6379H22.3134V41.3138C22.3134 42.0641 22.6231 43.0974 24.078 43.7769" fill="#5EB3E4"/>
<path d="M44.9566 21.6379H41.9532V44.3572H44.9566V21.6379Z" fill="#5EB3E4"/>
<path d="M49.9627 34.0309H62.0987V31.9218H49.9627V24.6672C49.9627 24.4902 49.9627 23.9382 51.3888 23.7966H64.4034V21.6379H51.5616C50.4669 21.6379 49.4945 21.8361 48.6807 22.2183C47.2546 22.8836 46.9593 23.9311 46.9593 24.6813V44.3572H49.9627V34.0309Z" fill="#5EB3E4"/>
<path d="M68.3573 43.7486C69.2144 44.152 70.1723 44.3572 71.2239 44.3572H84.0585V42.1986H71.087C69.6105 42.057 69.6106 41.5049 69.6106 41.328V34.0309H82.0274V31.9218H69.6106V24.6672C69.6106 24.4902 69.6105 23.9382 71.0366 23.7966H84.0513V21.6379H71.2167C70.1219 21.6379 69.1496 21.829 68.3357 22.2183C67.1834 22.7633 66.7656 23.5489 66.6504 24.2283H66.6V41.3138C66.6 42.3613 67.1906 43.1753 68.3501 43.7486" fill="#5EB3E4"/>
<path d="M113.048 42.1559C112.919 42.4249 112.782 42.4461 112.667 42.4461C112.551 42.4461 112.415 42.4249 112.285 42.1418L102.382 21.6448H99.263L104.369 32.141L99.5727 42.1701C99.4647 42.4036 99.3422 42.4461 99.1838 42.4461C99.0469 42.4461 98.9101 42.4107 98.7732 42.1418L88.8916 21.6377H85.7946L95.8563 42.439C96.5909 43.9466 97.7073 44.711 99.1838 44.711C100.66 44.711 101.827 43.9466 102.547 42.439L105.954 35.418L109.346 42.4319C110.081 43.9395 111.197 44.7039 112.674 44.7039C114.15 44.7039 115.317 43.9395 116.044 42.4319L126.106 21.6307H122.988L113.041 42.1418L113.048 42.1559Z" fill="#194F90"/>
<path d="M146.525 23.74C144.465 22.1051 141.599 21.277 138.005 21.277C134.908 21.277 132.308 21.8927 130.277 23.1101C127.77 24.6106 126.502 26.8613 126.502 29.8056V44.3644H129.506V33.5214H146.439V44.3644H149.456V29.8056C149.456 27.3284 148.47 25.29 146.525 23.74ZM146.439 30.2798V31.4122H129.506V30.2798C129.506 25.6793 132.286 23.4357 137.997 23.4357C143.709 23.4357 146.431 25.6722 146.431 30.2798" fill="#194F90"/>
<path d="M164.221 42.1564C164.106 42.397 163.977 42.4466 163.825 42.4466C163.688 42.4466 163.544 42.4112 163.415 42.1423L153.526 21.6382H150.429L160.491 42.4395C161.225 43.9471 162.342 44.7114 163.818 44.7114C165.295 44.7114 166.461 43.9471 167.182 42.4395L177.272 21.6382H174.153L164.214 42.1564H164.221Z" fill="#194F90"/>
<path d="M179.98 22.2183C178.827 22.7633 178.41 23.5489 178.294 24.2283H178.244V41.3138C178.244 42.3613 178.827 43.1753 179.994 43.7486C180.851 44.152 181.809 44.3572 182.861 44.3572H195.695V42.1986H182.724C181.255 42.057 181.255 41.5049 181.255 41.328V34.0309H193.671V31.9218H181.255V24.6672C181.255 24.4831 181.255 23.9382 182.681 23.7966H195.695V21.6379H182.861C181.766 21.6379 180.794 21.829 179.98 22.2183Z" fill="#194F90"/>
<path d="M202.999 19.7772C202.437 19.4799 201.854 19.3313 201.249 19.3313C200.644 19.3313 200.06 19.4799 199.498 19.7772C198.937 20.0744 198.497 20.5062 198.18 21.0653C197.856 21.6244 197.698 22.2048 197.698 22.8206C197.698 23.4363 197.856 24.0025 198.173 24.5546C198.483 25.1067 198.922 25.5313 199.484 25.8427C200.046 26.1471 200.636 26.3028 201.256 26.3028C201.875 26.3028 202.459 26.1471 203.02 25.8427C203.582 25.5313 204.021 25.1067 204.331 24.5546C204.641 24.0025 204.799 23.4292 204.799 22.8206C204.799 22.2119 204.641 21.6244 204.317 21.0653C204 20.5062 203.561 20.0815 202.999 19.7772ZM203.726 24.2149C203.474 24.6608 203.121 25.0005 202.675 25.2553C202.228 25.503 201.753 25.6304 201.256 25.6304C200.759 25.6304 200.291 25.503 199.837 25.2553C199.383 25.0076 199.03 24.6608 198.785 24.2149C198.533 23.769 198.411 23.3089 198.411 22.8206C198.411 22.3322 198.54 21.858 198.8 21.4121C199.059 20.9662 199.412 20.6194 199.858 20.3788C200.305 20.1381 200.773 20.0178 201.256 20.0178C201.738 20.0178 202.214 20.1381 202.66 20.3788C203.107 20.6194 203.46 20.9662 203.719 21.4121C203.978 21.858 204.108 22.3322 204.108 22.8206C204.108 23.3089 203.978 23.7761 203.726 24.2149Z" fill="#194F90"/>
<path d="M202.199 23.4852C202.091 23.3436 202.005 23.2516 201.947 23.2021C201.883 23.1525 201.796 23.103 201.681 23.0605C201.998 23.011 202.25 22.8977 202.43 22.7066C202.61 22.5155 202.696 22.289 202.696 22.0201C202.696 21.829 202.646 21.6521 202.56 21.4893C202.466 21.3336 202.351 21.2132 202.207 21.1354C202.07 21.0575 201.868 21.008 201.616 20.9868C201.53 20.9868 201.126 20.9797 200.413 20.9797H199.65V24.6813H200.413V23.1596H200.615C200.831 23.1596 201.004 23.2091 201.148 23.3153C201.285 23.4215 201.465 23.6763 201.674 24.0797L201.991 24.6813H202.934L202.488 23.9311C202.329 23.6692 202.236 23.5206 202.207 23.4781L202.199 23.4852ZM201.544 22.5226C201.436 22.558 201.162 22.5722 200.723 22.5722H200.413V21.56H200.723C201.162 21.56 201.429 21.5742 201.544 21.6096C201.652 21.645 201.739 21.7016 201.803 21.7795C201.868 21.8573 201.89 21.9493 201.89 22.0555C201.89 22.1616 201.861 22.2537 201.796 22.3386C201.739 22.4235 201.652 22.4801 201.544 22.5155" fill="#194F90"/>
<path d="M128.965 16.1451H134.957C175.412 -11.6277 212.814 7.21305 218 10.0724C212.512 7.02903 170.817 -14.2465 128.965 16.1451Z" fill="#5EB3E4"/>
<path d="M89.0355 49.8549H83.0431C42.5875 77.6277 5.18569 58.787 0 55.9276C5.48819 58.971 47.1826 80.2465 89.0355 49.8549Z" fill="#194F90"/>
</svg>
